# xmcd
# 
# Track frame offsets:
#     150
#     91541
#     179800
#     240003
# 
# Disc length: 4388
# 
# Revision: 0
# Processed by: cddbd v1.5.2PL0 Copyright (c) Steve Scherf et al.
# Submitted via: fre:ac v1.0.17
# 
DISCID=21112204
DTITLE=Der Klang der Natur - Wald, Bach, Regen und Meer
DYEAR=0
DGENRE=
TTITLE0=Vogelstimmen im Wald
TTITLE1=Spaziergang am Waldbach
TTITLE2=Ein warmer Sommerregen
TTITLE3=Zauber der Wellen
EXTD=
EXTT0=
EXTT1=
EXTT2=
EXTT3=
PLAYORDER=
